<svg width="35" height="419" viewBox="0 0 35 419" fill="none" xmlns="http://www.w3.org/2000/svg">
<line x1="2.5" y1="-2.5" x2="413.328" y2="-2.5" transform="matrix(4.59543e-08 1 1 -4.15779e-08 19.2651 3.17139)" stroke="black" stroke-width="5" stroke-linecap="round"/>
<ellipse rx="7.40959" ry="7.04794" transform="matrix(-1 0 0 1 17.4097 89.0479)" fill="black"/>
<path d="M10.3732 7.04794C10.3732 10.9404 13.6906 14.0959 17.7828 14.0959C21.875 14.0959 25.1924 10.9404 25.1924 7.04794C25.1924 3.15547 21.875 0 17.7828 0C13.6906 0 10.3732 3.15547 10.3732 7.04794Z" fill="black"/>
<path d="M10.0002 190.048C10.0002 193.94 13.3175 197.096 17.4097 197.096C21.502 197.096 24.8193 193.94 24.8193 190.048C24.8193 186.155 21.502 183 17.4097 183C13.3175 183 10.0002 186.155 10.0002 190.048Z" fill="black"/>
<ellipse rx="7.40959" ry="7.04794" transform="matrix(-1 0 0 1 17.4097 263.048)" fill="black"/>
<ellipse rx="7.40959" ry="7.04794" transform="matrix(-1 0 0 1 17.4097 332.048)" fill="black"/>
<ellipse rx="7.40959" ry="7.04794" transform="matrix(-1 0 0 1 17.7828 411.952)" fill="black"/>
</svg>
