<svg width="164" height="163" viewBox="0 0 164 163" fill="none" xmlns="http://www.w3.org/2000/svg">
<path fill-rule="evenodd" clip-rule="evenodd" d="M37.5 29.875C25.2116 29.875 15.25 39.7807 15.25 52V125.75C15.25 137.969 25.2116 147.875 37.5 147.875H126.5C138.788 147.875 148.75 137.969 148.75 125.75V52C148.75 39.7807 138.788 29.875 126.5 29.875H37.5ZM0.416626 52C0.416626 31.6345 17.0194 15.125 37.5 15.125H126.5C146.98 15.125 163.583 31.6345 163.583 52V125.75C163.583 146.115 146.98 162.625 126.5 162.625H37.5C17.0194 162.625 0.416626 146.115 0.416626 125.75V52Z" fill="black"/>
<path fill-rule="evenodd" clip-rule="evenodd" d="M52.3333 0.375C56.4294 0.375 59.75 3.6769 59.75 7.75V37.25C59.75 41.3231 56.4294 44.625 52.3333 44.625C48.2372 44.625 44.9166 41.3231 44.9166 37.25V7.75C44.9166 3.6769 48.2372 0.375 52.3333 0.375Z" fill="black"/>
<path fill-rule="evenodd" clip-rule="evenodd" d="M111.667 0.375C115.763 0.375 119.083 3.6769 119.083 7.75V37.25C119.083 41.3231 115.763 44.625 111.667 44.625C107.571 44.625 104.25 41.3231 104.25 37.25V7.75C104.25 3.6769 107.571 0.375 111.667 0.375Z" fill="black"/>
<path fill-rule="evenodd" clip-rule="evenodd" d="M0.416626 66.75C0.416626 62.6769 3.73718 59.375 7.83329 59.375H156.167C160.263 59.375 163.583 62.6769 163.583 66.75C163.583 70.8231 160.263 74.125 156.167 74.125H7.83329C3.73718 74.125 0.416626 70.8231 0.416626 66.75Z" fill="black"/>
</svg>
