<svg width="60" height="65" viewBox="0 0 60 65" fill="none" xmlns="http://www.w3.org/2000/svg">
<path d="M29.9919 21.4209C24.4833 21.4209 19.9879 26.2368 19.9879 32.1382C19.9879 38.0395 24.4833 42.8555 29.9919 42.8555C35.5006 42.8555 39.996 38.0395 39.996 32.1382C39.996 26.2368 35.5006 21.4209 29.9919 21.4209ZM59.9967 32.1382C59.9967 27.7001 60.0342 23.3022 59.8015 18.8722C59.5689 13.7266 58.4732 9.15993 54.9608 5.39722C51.441 1.62647 47.1857 0.46067 42.3826 0.211431C38.2399 -0.0378086 34.1347 0.00239144 29.9994 0.00239144C25.8567 0.00239144 21.7515 -0.0378086 17.6163 0.211431C12.8132 0.46067 8.55035 1.63451 5.03804 5.39722C1.51823 9.16797 0.430013 13.7266 0.19736 18.8722C-0.0352925 23.3103 0.0022323 27.7082 0.0022323 32.1382C0.0022323 36.5682 -0.0352925 40.9741 0.19736 45.4041C0.430013 50.5497 1.52573 55.1164 5.03804 58.8791C8.55785 62.6499 12.8132 63.8157 17.6163 64.0649C21.759 64.3142 25.8642 64.274 29.9994 64.274C34.1422 64.274 38.2474 64.3142 42.3826 64.0649C47.1857 63.8157 51.4485 62.6419 54.9608 58.8791C58.4807 55.1084 59.5689 50.5497 59.8015 45.4041C60.0417 40.9741 59.9967 36.5763 59.9967 32.1382V32.1382ZM29.9919 48.6282C21.4738 48.6282 14.5993 41.2636 14.5993 32.1382C14.5993 23.0128 21.4738 15.6482 29.9919 15.6482C38.51 15.6482 45.3846 23.0128 45.3846 32.1382C45.3846 41.2636 38.51 48.6282 29.9919 48.6282ZM46.015 18.824C44.0262 18.824 42.4201 17.1034 42.4201 14.9728C42.4201 12.8422 44.0262 11.1217 46.015 11.1217C48.0038 11.1217 49.6098 12.8422 49.6098 14.9728C49.6104 15.4787 49.5178 15.9798 49.3374 16.4474C49.1569 16.9149 48.8922 17.3397 48.5582 17.6974C48.2243 18.0552 47.8278 18.3388 47.3914 18.5321C46.9549 18.7254 46.4872 18.8246 46.015 18.824V18.824Z" fill="black"/>
</svg>
