<svg width="178" height="179" viewBox="0 0 178 179" fill="none" xmlns="http://www.w3.org/2000/svg">
<path fill-rule="evenodd" clip-rule="evenodd" d="M34.4647 125.102C34.9825 124.411 35.6539 123.851 36.4258 123.465C37.1977 123.079 38.0488 122.878 38.9118 122.878H66.7059C68.1802 122.878 69.5941 123.464 70.6366 124.506C71.679 125.549 72.2647 126.963 72.2647 128.437C72.2647 129.911 71.679 131.325 70.6366 132.368C69.5941 133.41 68.1802 133.996 66.7059 133.996H41.6912L16.6765 167.349H161.206L136.191 133.996H111.176C109.702 133.996 108.288 133.41 107.246 132.368C106.203 131.325 105.618 129.911 105.618 128.437C105.618 126.963 106.203 125.549 107.246 124.506C108.288 123.464 109.702 122.878 111.176 122.878H138.971C139.834 122.878 140.685 123.079 141.457 123.465C142.228 123.851 142.9 124.411 143.418 125.102L176.771 169.572C177.39 170.398 177.767 171.38 177.86 172.408C177.953 173.437 177.757 174.47 177.295 175.394C176.834 176.317 176.124 177.094 175.246 177.636C174.368 178.179 173.356 178.467 172.324 178.467H5.55883C4.52649 178.467 3.51454 178.179 2.63638 177.636C1.75822 177.094 1.04854 176.317 0.586863 175.394C0.125187 174.47 -0.0702458 173.437 0.0224641 172.408C0.115174 171.38 0.492363 170.398 1.11177 169.572L34.4647 125.102Z" fill="black"/>
<path fill-rule="evenodd" clip-rule="evenodd" d="M44.4706 45.0547C44.4714 36.4966 46.9416 28.1206 51.5847 20.9316C56.2278 13.7425 62.8467 8.04599 70.6471 4.52542C78.4475 1.00484 87.0981 -0.190183 95.5608 1.08373C104.024 2.35764 111.939 6.04637 118.357 11.7073C124.776 17.3682 129.424 24.7609 131.745 32.9982C134.066 41.2356 133.961 49.9677 131.442 58.1467C128.924 66.3258 124.098 73.6044 117.546 79.1091C110.993 84.6138 102.991 88.1109 94.5 89.1807V150.672C94.5 152.147 93.9143 153.561 92.8719 154.603C91.8294 155.646 90.4155 156.231 88.9412 156.231C87.4669 156.231 86.053 155.646 85.0105 154.603C83.968 153.561 83.3824 152.147 83.3824 150.672V89.1918C72.6312 87.8373 62.7445 82.6039 55.5795 74.4746C48.4145 66.3454 44.4642 55.8797 44.4706 45.0436V45.0547Z" fill="black"/>
</svg>
