<svg width="159" height="80" viewBox="0 0 159 80" fill="none" xmlns="http://www.w3.org/2000/svg">
<path d="M0 40C0 17.9086 17.9086 0 40 0H119C141.091 0 159 17.9086 159 40V40C159 62.0914 141.091 80 119 80H40C17.9086 80 0 62.0914 0 40V40Z" fill="#FD5461"/>
<path fill-rule="evenodd" clip-rule="evenodd" d="M34 28C34 26.8954 34.8954 26 36 26H66C67.1046 26 68 26.8954 68 28C68 29.1046 67.1046 30 66 30H36C34.8954 30 34 29.1046 34 28Z" fill="#FEFEFE"/>
<path fill-rule="evenodd" clip-rule="evenodd" d="M34 40.9524C34 39.8478 34.8954 38.9524 36 38.9524H66C67.1046 38.9524 68 39.8478 68 40.9524C68 42.0569 67.1046 42.9524 66 42.9524H36C34.8954 42.9524 34 42.0569 34 40.9524Z" fill="#FEFEFE"/>
<path fill-rule="evenodd" clip-rule="evenodd" d="M34 53.0952C34 51.9907 34.8954 51.0952 36 51.0952H66C67.1046 51.0952 68 51.9907 68 53.0952C68 54.1998 67.1046 55.0952 66 55.0952H36C34.8954 55.0952 34 54.1998 34 53.0952Z" fill="#FEFEFE"/>
<path fill-rule="evenodd" clip-rule="evenodd" d="M109 60.25C120.184 60.25 129.25 51.1836 129.25 40C129.25 28.8164 120.184 19.75 109 19.75C97.8164 19.75 88.75 28.8164 88.75 40C88.75 51.1836 97.8164 60.25 109 60.25ZM109 62.5C121.427 62.5 131.5 52.4267 131.5 40C131.5 27.5733 121.427 17.5 109 17.5C96.5733 17.5 86.5 27.5733 86.5 40C86.5 52.4267 96.5733 62.5 109 62.5Z" fill="#FEFEFE"/>
<path d="M95.5 53.0838C95.5 51.9216 96.3685 50.9395 97.525 50.8113C106.204 49.8505 111.835 49.9371 120.495 50.8326C120.928 50.878 121.338 51.0484 121.675 51.3229C122.012 51.5975 122.262 51.9643 122.394 52.3785C122.526 52.7928 122.535 53.2366 122.419 53.6557C122.303 54.0748 122.068 54.4511 121.742 54.7386C111.521 63.6475 105.68 63.5249 96.22 54.7476C95.7588 54.3201 95.5 53.7126 95.5 53.0849V53.0838Z" fill="#FEFEFE"/>
<path fill-rule="evenodd" clip-rule="evenodd" d="M120.379 51.9509C111.788 51.0621 106.238 50.9789 97.6476 51.9295C97.0694 51.9936 96.625 52.4875 96.625 53.0849C96.625 53.4066 96.7589 53.7115 96.985 53.923C101.674 58.2722 105.227 60.2376 108.7 60.25C112.185 60.2624 115.929 58.3127 121.003 53.8915C121.164 53.748 121.28 53.5608 121.337 53.3526C121.393 53.1445 121.389 52.9243 121.322 52.7188C121.256 52.5134 121.132 52.3315 120.965 52.1954C120.797 52.0593 120.594 51.9747 120.379 51.952V51.9509ZM97.4013 49.693C106.172 48.7221 111.885 48.8099 120.612 49.7132C121.263 49.7812 121.88 50.0373 122.387 50.4503C122.894 50.8633 123.27 51.4152 123.468 52.0385C123.667 52.6618 123.679 53.3294 123.504 53.9597C123.329 54.5899 122.974 55.1554 122.482 55.5869C117.335 60.0734 113.049 62.5169 108.693 62.5C104.325 62.4842 100.227 59.9991 95.4561 55.5722C95.1145 55.2541 94.8422 54.8689 94.6562 54.4407C94.4702 54.0125 94.3745 53.5506 94.375 53.0837C94.3734 52.245 94.6812 51.4351 95.2396 50.8092C95.798 50.1833 96.5677 49.7855 97.4013 49.6919V49.693Z" fill="#FEFEFE"/>
<path d="M118 35.5C118 37.8869 117.052 40.1761 115.364 41.864C113.676 43.5518 111.387 44.5 109 44.5C106.613 44.5 104.324 43.5518 102.636 41.864C100.948 40.1761 100 37.8869 100 35.5C100 33.1131 100.948 30.8239 102.636 29.136C104.324 27.4482 106.613 26.5 109 26.5C111.387 26.5 113.676 27.4482 115.364 29.136C117.052 30.8239 118 33.1131 118 35.5V35.5Z" fill="#FEFEFE"/>
<path fill-rule="evenodd" clip-rule="evenodd" d="M109 42.25C110.79 42.25 112.507 41.5388 113.773 40.273C115.039 39.0071 115.75 37.2902 115.75 35.5C115.75 33.7098 115.039 31.9929 113.773 30.727C112.507 29.4612 110.79 28.75 109 28.75C107.21 28.75 105.493 29.4612 104.227 30.727C102.961 31.9929 102.25 33.7098 102.25 35.5C102.25 37.2902 102.961 39.0071 104.227 40.273C105.493 41.5388 107.21 42.25 109 42.25V42.25ZM109 44.5C111.387 44.5 113.676 43.5518 115.364 41.864C117.052 40.1761 118 37.8869 118 35.5C118 33.1131 117.052 30.8239 115.364 29.136C113.676 27.4482 111.387 26.5 109 26.5C106.613 26.5 104.324 27.4482 102.636 29.136C100.948 30.8239 100 33.1131 100 35.5C100 37.8869 100.948 40.1761 102.636 41.864C104.324 43.5518 106.613 44.5 109 44.5V44.5Z" fill="#FEFEFE"/>
</svg>
