<svg width="80" height="80" viewBox="0 0 80 80" fill="none" xmlns="http://www.w3.org/2000/svg">
<path d="M80 40C80 62.0914 62.0914 80 40 80C17.9086 80 0 62.0914 0 40C0 17.9086 17.9086 0 40 0C62.0914 0 80 17.9086 80 40Z" fill="#FBFBFB"/>
<path d="M40 0C29.3913 0 19.2172 4.21427 11.7157 11.7157C4.21427 19.2172 0 29.3913 0 40C0 50.6087 4.21427 60.7828 11.7157 68.2843C19.2172 75.7857 29.3913 80 40 80C50.6087 80 60.7828 75.7857 68.2843 68.2843C75.7857 60.7828 80 50.6087 80 40C80 29.3913 75.7857 19.2172 68.2843 11.7157C60.7828 4.21427 50.6087 0 40 0ZM16.37 23.63H54.5567C56.4764 23.658 58.3083 24.4386 59.6581 25.804C61.0078 27.1693 61.7674 29.0101 61.7733 30.93V50.4733C61.7433 52.3889 60.9692 54.2176 59.6149 55.5725C58.2605 56.9275 56.4322 57.7024 54.5167 57.7333H26.8C22.8867 57.7333 20 54.4333 20 50.4733V35.01L15.01 26.35C13.9767 24.95 14.8433 23.63 16.37 23.63ZM27.7533 30.93C26.5967 30.93 25.4867 31.63 25.4867 32.7433C25.4867 33.8567 26.5967 34.5567 27.7533 34.5567H54.1033C55.2567 34.5567 56.37 33.8567 56.37 32.7433C56.37 31.63 55.2567 30.9267 54.1033 30.9267L27.7533 30.93ZM27.7533 38.1867C26.5967 38.1867 25.4867 38.8867 25.4867 40C25.4867 41.1133 26.5967 41.8133 27.7533 41.8133H54.1033C55.2567 41.8133 56.37 41.1133 56.37 40C56.37 38.8867 55.2567 38.1867 54.1033 38.1867H27.7533ZM27.71 45.4867C26.5567 45.4867 25.4433 46.1867 25.4433 47.3C25.4433 48.4133 26.5567 49.1133 27.71 49.1133H46.8033C47.96 49.1133 49.07 48.4133 49.07 47.3C49.07 46.1867 47.96 45.4833 46.8033 45.4833L27.71 45.4867Z" fill="#FF0013"/>
</svg>
