<svg width="134" height="134" viewBox="0 0 134 134" fill="none" xmlns="http://www.w3.org/2000/svg">
<path d="M0 67C0 29.9969 29.9969 0 67 0V0C104.003 0 134 29.9969 134 67V67C134 104.003 104.003 134 67 134V134C29.9969 134 0 104.003 0 67V67Z" fill="#FF0013" fill-opacity="0.67"/>
<path fill-rule="evenodd" clip-rule="evenodd" d="M63.0818 31.3817C55.4269 31.3817 48.0235 34.6368 42.5187 40.534C37.0051 46.4407 33.8631 54.5085 33.8631 62.9748C33.8631 71.4412 37.0051 79.509 42.5187 85.4157C48.0235 91.3129 55.4269 94.568 63.0818 94.568C70.6995 94.568 78.0681 91.3445 83.5644 85.5017C83.623 85.4345 83.6842 85.3688 83.7479 85.3048C89.1977 79.4082 92.3006 71.3883 92.3006 62.9748C92.3006 54.5085 89.1585 46.4407 83.6449 40.534C78.1402 34.6368 70.7368 31.3817 63.0818 31.3817ZM92.1033 88.0495C97.5098 80.9722 100.471 72.1174 100.471 62.9748C100.471 52.5161 96.5957 42.4339 89.6178 34.9586C82.6311 27.4737 73.0925 23.2109 63.0818 23.2109C53.0712 23.2109 43.5326 27.4737 36.5458 34.9586C29.568 42.4339 25.6924 52.5161 25.6924 62.9748C25.6924 73.4336 29.568 83.5158 36.5458 90.9911C43.5326 98.476 53.0712 102.739 63.0818 102.739C71.6637 102.739 79.8986 99.606 86.4763 93.9961L101.233 109.833C102.771 111.484 105.356 111.575 107.007 110.037C108.658 108.499 108.749 105.914 107.211 104.263L92.1033 88.0495Z" fill="#FEFEFE"/>
</svg>
