<svg xmlns="http://www.w3.org/2000/svg" viewBox="0 0 142.14 113.71"><defs><style>.cls-1{fill:#c1121f;}</style></defs><g id="Layer_2" data-name="Layer 2"><g id="Text"><path class="cls-1" d="M135.71,96,109.07,75.9l-.09-.07a4.59,4.59,0,0,0-7.12,4.83c2.42,10.13,4.56,19.68,6.26,27.51a4,4,0,0,1-7.19,3.06L82.25,83.57a36.68,36.68,0,0,0-9.54-9.69,4.68,4.68,0,0,0-5.08-.18A36.69,36.69,0,0,0,54,88L41.49,111.58a4,4,0,0,1-7.42-2.64c2-9.72,4.51-21,7.42-32.57a4.6,4.6,0,0,0-6.56-5.22,36.78,36.78,0,0,0-8.7,6.09L6.75,95.46A4,4,0,0,1,.58,90.54C21.12,55.28,60-2.08,72.65.11A4,4,0,0,1,73.79,0C85.6.76,123.1,60.34,141.53,90.8A4,4,0,0,1,135.71,96Z"/></g></g></svg>