<svg xmlns="http://www.w3.org/2000/svg" viewBox="0 0 790.24 173.63"><defs><style>.cls-1{fill:#c1121f;}</style></defs><g id="Layer_2" data-name="Layer 2"><g id="Text"><path class="cls-1" d="M349,40.1c-2.13-2.19-5.13-3.3-9-3.3h-.21A51.78,51.78,0,0,0,319,41.07,54.56,54.56,0,0,0,290.2,69.83a52,52,0,0,0-4.27,20.93v34.85a10.88,10.88,0,0,0,1,4.59,11.47,11.47,0,0,0,2.6,3.61,12.61,12.61,0,0,0,3.83,2.44,12.34,12.34,0,0,0,4.7.91,10.93,10.93,0,0,0,4.42-.91,12,12,0,0,0,3.55-2.44,11.41,11.41,0,0,0,3.35-8.2V90.43a28.28,28.28,0,0,1,2.49-11.75,32.06,32.06,0,0,1,6.58-9.61,30.38,30.38,0,0,1,9.66-6.48,29.66,29.66,0,0,1,11.7-2.37H340a12.34,12.34,0,0,0,4.7-.91,12.89,12.89,0,0,0,3.89-2.49,11.62,11.62,0,0,0,2.65-3.73,11.24,11.24,0,0,0,1-4.64A11.52,11.52,0,0,0,349,40.1Z"/><path class="cls-1" d="M388.18,44a11.51,11.51,0,0,0-2.43-3.73,11.32,11.32,0,0,0-3.68-2.54,11.05,11.05,0,0,0-4.48-.92,11.62,11.62,0,0,0-4.62.92,11.86,11.86,0,0,0-3.78,2.54,12.7,12.7,0,0,0-2.6,3.73,10.62,10.62,0,0,0-1,4.46V125.5a11.3,11.3,0,0,0,3.46,8.26,12.24,12.24,0,0,0,3.78,2.49A11.61,11.61,0,0,0,389,125.5v-77A11.73,11.73,0,0,0,388.18,44Zm1-36.11a12.59,12.59,0,0,0-2.81-4.1A13.75,13.75,0,0,0,382.24,1a12.37,12.37,0,0,0-9.93,0,13,13,0,0,0-4.09,2.74,13.27,13.27,0,0,0-2.76,4.1,12.79,12.79,0,0,0-1,5.07,12,12,0,0,0,1,4.91,13.16,13.16,0,0,0,2.76,4.05,12.88,12.88,0,0,0,4.09,2.76,12.59,12.59,0,0,0,9.93,0,13.62,13.62,0,0,0,4.15-2.76,12.48,12.48,0,0,0,2.81-4.05,11.88,11.88,0,0,0,1-4.91A12.63,12.63,0,0,0,389.2,7.88Z"/><path class="cls-1" d="M509.63,67a53,53,0,0,0-11-16.34,51.36,51.36,0,0,0-16.29-11.06,51.23,51.23,0,0,0-39.93,0,52.19,52.19,0,0,0-16.35,11.06A53.27,53.27,0,0,0,414.94,67a49.16,49.16,0,0,0-4.11,20v74.46a12,12,0,0,0,1,4.81,13,13,0,0,0,2.6,3.83,12.31,12.31,0,0,0,3.78,2.58,11.7,11.7,0,0,0,9.33,0,11.33,11.33,0,0,0,3.61-2.58,11.21,11.21,0,0,0,2.32-3.83,13.92,13.92,0,0,0,.81-4.81V130a53.32,53.32,0,0,0,13.22,6.22,51.26,51.26,0,0,0,34.86-1.84,51.36,51.36,0,0,0,16.29-11.06,52.67,52.67,0,0,0,11-16.4,51.38,51.38,0,0,0,0-40ZM488.1,97.83a27.72,27.72,0,0,1-14.84,15A27.4,27.4,0,0,1,462.31,115a26.94,26.94,0,0,1-10.89-2.21,29,29,0,0,1-8.91-6,28.42,28.42,0,0,1-6-9,27.87,27.87,0,0,1,0-21.8,28,28,0,0,1,6-8.91,29.24,29.24,0,0,1,9-6,27.12,27.12,0,0,1,10.84-2.21,27.4,27.4,0,0,1,10.95,2.21,28.54,28.54,0,0,1,8.91,6,28.39,28.39,0,0,1,5.93,30.71Z"/><path class="cls-1" d="M626.5,67a53,53,0,0,0-11-16.34,51.36,51.36,0,0,0-16.29-11.06,51.21,51.21,0,0,0-39.92,0,52.12,52.12,0,0,0-16.36,11.06A53.27,53.27,0,0,0,531.8,67a49.32,49.32,0,0,0-4.1,20v74.46a11.81,11.81,0,0,0,1,4.81,13.13,13.13,0,0,0,2.59,3.83,12.43,12.43,0,0,0,3.78,2.58,11.73,11.73,0,0,0,9.34,0,11.15,11.15,0,0,0,5.93-6.41,13.92,13.92,0,0,0,.81-4.81V130a53.32,53.32,0,0,0,13.22,6.22,51.23,51.23,0,0,0,34.85-1.84,51.36,51.36,0,0,0,16.29-11.06,52.7,52.7,0,0,0,11-16.4,51.62,51.62,0,0,0,0-40ZM605,97.83a27.75,27.75,0,0,1-14.83,15,27.44,27.44,0,0,1-11,2.21,27,27,0,0,1-10.9-2.21,28.84,28.84,0,0,1-8.9-6,28.09,28.09,0,0,1-6-9,27.87,27.87,0,0,1,0-21.8,27.66,27.66,0,0,1,6-8.91,29.12,29.12,0,0,1,9-6,27.08,27.08,0,0,1,10.84-2.21,27.44,27.44,0,0,1,11,2.21,28.49,28.49,0,0,1,8.9,6A28.34,28.34,0,0,1,605,97.83Z"/><path class="cls-1" d="M670.58,44a11.7,11.7,0,0,0-2.44-3.73,11.39,11.39,0,0,0-3.67-2.54A11.09,11.09,0,0,0,660,36.8a11.71,11.71,0,0,0-8.4,3.46A12.51,12.51,0,0,0,649,44a10.47,10.47,0,0,0-1,4.46V125.5a11.37,11.37,0,0,0,.92,4.59,10.94,10.94,0,0,0,2.54,3.67,12.2,12.2,0,0,0,3.77,2.49,11.73,11.73,0,0,0,9.06,0,11.78,11.78,0,0,0,3.73-2.49,12.09,12.09,0,0,0,2.49-3.67,11.53,11.53,0,0,0,.91-4.59v-77A11.92,11.92,0,0,0,670.58,44Zm1-36.11a12.9,12.9,0,0,0-2.81-4.1A13.68,13.68,0,0,0,664.63,1a12.35,12.35,0,0,0-9.92,0,13.32,13.32,0,0,0-4.11,2.74,13.58,13.58,0,0,0-2.74,4.1,12.62,12.62,0,0,0-1,5.07,11.87,11.87,0,0,0,1,4.91,13.46,13.46,0,0,0,2.74,4.05,13.2,13.2,0,0,0,4.11,2.76,12.57,12.57,0,0,0,9.92,0,13.55,13.55,0,0,0,4.16-2.76,12.8,12.8,0,0,0,2.81-4.05,12.2,12.2,0,0,0,1-4.91A13,13,0,0,0,671.6,7.88Z"/><path class="cls-1" d="M786.52,65.78A50.06,50.06,0,0,0,776.32,50,48.57,48.57,0,0,0,722.64,39.4,47.7,47.7,0,0,0,707.21,50,49.34,49.34,0,0,0,697,65.78a50.11,50.11,0,0,0-3.73,19.37v40.67a10.73,10.73,0,0,0,1,4.59,11.43,11.43,0,0,0,2.65,3.67,12.2,12.2,0,0,0,3.83,2.44,12,12,0,0,0,4.54.86,11.71,11.71,0,0,0,4.48-.86,11.21,11.21,0,0,0,6.09-6.11,12.22,12.22,0,0,0,.86-4.59V85.15a28.14,28.14,0,0,1,1.88-10.31,26.78,26.78,0,0,1,5.18-8.36,23.24,23.24,0,0,1,7.94-5.56,25.38,25.38,0,0,1,10.14-2,24.13,24.13,0,0,1,17.65,7.44,27.68,27.68,0,0,1,7.49,18,5.88,5.88,0,0,0-.11,1.3v40.13a10.6,10.6,0,0,0,1,4.59,11.7,11.7,0,0,0,2.58,3.67,11.44,11.44,0,0,0,3.78,2.44,12.27,12.27,0,0,0,4.64.86,11.68,11.68,0,0,0,4.48-.86,10.48,10.48,0,0,0,3.6-2.44,12.19,12.19,0,0,0,2.44-3.67,11.5,11.5,0,0,0,.91-4.59V85.15A50.1,50.1,0,0,0,786.52,65.78Z"/><path class="cls-1" d="M283.83,48.36a11.19,11.19,0,0,1-.91,4.46,11.35,11.35,0,0,1-2.55,3.68A12.24,12.24,0,0,1,276.59,59a11.89,11.89,0,0,1-4.64.91H235v65.57a12,12,0,0,1-12,12h0a12,12,0,0,1-12-12V59.9H174A12,12,0,0,1,169.4,59a12.36,12.36,0,0,1-3.78-2.49,11.48,11.48,0,0,1-2.54-3.68,11.19,11.19,0,0,1-.91-4.46,11,11,0,0,1,1-4.53,12.61,12.61,0,0,1,6.78-6.55,11,11,0,0,1,4.17-.8H272a10.9,10.9,0,0,1,4.54,1,12.67,12.67,0,0,1,3.78,2.6,12.89,12.89,0,0,1,2.59,3.78A10.82,10.82,0,0,1,283.83,48.36Z"/><path class="cls-1" d="M135.71,126.17,109.07,106,109,106a4.59,4.59,0,0,0-7.12,4.83c2.42,10.13,4.56,19.68,6.26,27.51a4,4,0,0,1-7.19,3.06L82.25,113.7A36.68,36.68,0,0,0,72.71,104a4.68,4.68,0,0,0-5.08-.18A36.69,36.69,0,0,0,54,118.17L41.49,141.71a4,4,0,0,1-7.42-2.64c2-9.72,4.51-21,7.42-32.57a4.6,4.6,0,0,0-6.56-5.22,36.78,36.78,0,0,0-8.7,6.09L6.75,125.59a4,4,0,0,1-6.17-4.92C21.12,85.41,60,28.05,72.65,30.24a4,4,0,0,1,1.14-.1c11.81.75,49.31,60.33,67.74,90.79A4,4,0,0,1,135.71,126.17Z"/></g></g></svg>