<svg width="60" height="65" viewBox="0 0 60 65" fill="none" xmlns="http://www.w3.org/2000/svg">
<path d="M30 0C13.433 0 0 14.3906 0 32.1384C0 49.8863 13.433 64.2769 30 64.2769C46.567 64.2769 60 49.8863 60 32.1384C60 14.3906 46.567 0 30 0ZM44.4174 24.2258C44.4375 24.5629 44.4375 24.9145 44.4375 25.2588C44.4375 35.7899 36.9509 47.9207 23.2701 47.9207C19.0513 47.9207 15.1406 46.6079 11.846 44.3482C12.4487 44.4199 13.0246 44.4486 13.6406 44.4486C17.1228 44.4486 20.3237 43.186 22.875 41.0482C19.6071 40.9765 16.8616 38.6809 15.9241 35.5244C17.0692 35.7038 18.1004 35.7038 19.279 35.381C17.5964 35.0147 16.084 34.0358 14.9988 32.6103C13.9136 31.1849 13.3225 29.401 13.3259 27.5616V27.4611C14.3103 28.0566 15.4687 28.4224 16.6808 28.4726C15.6619 27.7452 14.8263 26.7596 14.2481 25.6034C13.6699 24.4471 13.3669 23.1558 13.3661 21.8441C13.3661 20.3591 13.7277 19.0033 14.3772 17.8268C16.2449 20.2898 18.5754 22.3042 21.2174 23.7391C23.8594 25.1741 26.7536 25.9974 29.7121 26.1555C28.6607 20.7393 32.4375 16.3562 36.9777 16.3562C39.1205 16.3562 41.0491 17.3174 42.4085 18.867C44.0893 18.5298 45.6964 17.8555 47.1295 16.9516C46.5737 18.7952 45.4085 20.3519 43.8616 21.3348C45.3616 21.1626 46.808 20.7178 48.1473 20.0937C47.1362 21.6863 45.8705 23.0995 44.4174 24.2258Z" fill="black"/>
</svg>
